<svg xmlns="http://www.w3.org/2000/svg" version="1.1" xmlns:xlink="http://www.w3.org/1999/xlink" width="800" height="800"><svg xmlns="http://www.w3.org/2000/svg" version="1.1" xmlns:xlink="http://www.w3.org/1999/xlink" width="800" height="800"><svg version="1.0" xmlns="http://www.w3.org/2000/svg" width="800.000000" height="800.000000" viewBox="0 0 800.000000 800.000000" preserveAspectRatio="xMidYMid meet">
  <metadata>
    <rdf:rdf xmlns:rdf="http://www.w3.org/1999/02/22-rdf-syntax-ns#" xmlns:rdfs="http://www.w3.org/2000/01/rdf-schema#" xmlns:dc="http://purl.org/dc/elements/1.1/">
      <rdf:description dc:format="image/svg+xml" dc:label="1" dc:contentproducer="001191330110MACRLGPT8B00000" dc:produceid="375796928" dc:reservedcode1="Nb02jc3yuVu+0Vmmi3jr/qrahbIRofmTMduisHSm9Cg=" dc:contentpropagator="001191330110MACRLGPT8B00000" dc:propagateid="375796928" dc:reservedcode2="Nb02jc3yuVu+0Vmmi3jr/qrahbIRofmTMduisHSm9Cg="></rdf:description>
    </rdf:rdf>
  </metadata>
  <g transform="translate(-40.824925,862.122758) scale(0.112815,-0.112815)" fill="#000000" stroke="none">
    <path d="M2653 5796 c-60 -20 -104 -49 -157 -106 -72 -77 -89 -124 -94 -263 -4 -116 -5 -119 -26 -112 -11 4 -45 9 -73 12 -95 10 -190 -53 -236 -157 -20 -44 -21 -63 -21 -1235 0 -1182 0 -1190 20 -1236 42 -90 128 -162 209 -174 22 -3 177 -10 344 -15 411 -14 837 -56 1046 -105 37 -8 70 -14 72 -12 5 6 -255 120 -379 166 -116 44 -281 88 -452 121 -135 25 -404 60 -470 60 -43 0 -53 4 -87 39 l-39 39 0 1114 c0 1067 1 1116 18 1131 23 21 36 21 53 0 12 -13 15 -200 19 -1089 l5 -1073 30 -31 c17 -18 39 -36 51 -40 11 -4 105 -22 210 -40 206 -34 442 -86 572 -126 96 -29 305 -113 445 -178 54 -25 100 -46 103 -46 2 0 4 686 4 1524 l0 1525 -27 19 c-107 75 -336 174 -517 222 -218 58 -542 93 -623 66z m449 -646 c153 -15 497 -108 498 -135 0 -10 -68 -185 -75 -193 -2 -2 -52 12 -112 32 -185 60 -200 63 -480 92 l-53 5 0 42 c0 23 3 72 7 110 l6 67 46 -5 c25 -2 99 -9 163 -15z m-2 -744 c63 -8 152 -24 197 -35 90 -23 283 -89 297 -102 7 -6 -52 -172 -70 -197 -1 -2 -53 14 -116 36 -150 52 -236 71 -393 85 l-130 12 -3 94 c-1 52 -1 100 2 108 7 17 67 16 216 -1z m19 -742 c68 -13 163 -40 212 -59 118 -46 269 -116 269 -126 0 -9 -89 -189 -94 -189 -2 0 -47 21 -101 46 -130 60 -278 109 -395 129 -52 9 -104 18 -116 20 -20 4 -20 6 -8 102 7 54 13 102 14 107 0 10 56 3 219 -30z"></path>
    <path d="M4865 5791 c-82 -11 -195 -29 -249 -41 -183 -40 -398 -126 -539 -215 l-57 -37 2 -1548 c2 -852 7 -1552 11 -1556 14 -15 81 -8 252 24 271 50 544 77 965 93 l295 11 63 30 c43 20 73 43 96 74 71 92 67 10 64 1330 l-3 1189 -22 40 c-59 109 -198 173 -296 136 l-24 -10 -5 102 c-7 132 -31 198 -104 276 -66 72 -148 112 -238 117 -34 2 -128 -5 -211 -15z m60 -633 c2 -7 6 -57 8 -110 l5 -96 -76 -6 c-160 -13 -291 -36 -419 -75 -73 -23 -137 -42 -143 -43 -13 -3 -92 184 -82 193 4 4 71 28 148 53 154 50 263 72 424 85 58 4 111 9 118 10 7 0 14 -5 17 -11z m580 -111 c3 -12 4 -520 3 -1129 l-3 -1108 -31 -31 c-35 -35 -8 -30 -374 -68 -96 -10 -177 -17 -179 -15 -6 6 38 21 228 78 101 31 195 63 208 72 13 8 33 29 43 47 19 31 20 59 20 1099 l0 1067 22 15 c26 18 55 6 63 -27z m-570 -734 l7 -101 -43 -6 c-24 -3 -75 -8 -114 -11 -122 -10 -232 -35 -363 -80 -70 -24 -130 -41 -133 -37 -3 4 -23 47 -43 96 -28 69 -34 91 -24 98 30 19 192 72 298 99 111 27 388 62 402 50 3 -3 10 -52 13 -108z m-7 -711 c8 -50 12 -98 9 -105 -3 -7 -47 -19 -110 -30 -128 -20 -266 -63 -411 -128 -82 -37 -112 -46 -118 -37 -4 7 -24 50 -45 96 -31 70 -34 85 -22 93 46 29 272 123 346 144 91 25 297 65 323 62 10 -2 18 -28 28 -95z"></path>
  </g>
</svg></svg><style>@media (prefers-color-scheme: light) { :root { filter: none; } }
@media (prefers-color-scheme: dark) { :root { filter: invert(100%); } }
</style></svg>